<svg xmlns="http://www.w3.org/2000/svg" xmlns:xlink="http://www.w3.org/1999/xlink" version="1.1" class="marks" width="878" height="363" viewBox="0 0 878 363"><rect width="878" height="363" fill="white"/><g fill="none" stroke-miterlimit="10" transform="translate(73,33)"><g class="mark-group role-frame root" role="graphics-object" aria-roledescription="group mark container"><g transform="translate(0,0)"><path class="background" aria-hidden="true" d="M0.5,0.5h504v240h-504Z" stroke="#ddd"/><g><g class="mark-group role-axis" role="graphics-symbol" aria-roledescription="axis" aria-label="X-axis titled 'week' for a time scale with values from August-2024 to August-2026"><g transform="translate(0.5,240.5)"><path class="background" aria-hidden="true" d="M0,0h0v0h0Z" pointer-events="none"/><g><g class="mark-rule role-axis-tick" pointer-events="none"><line transform="translate(9,0)" x2="0" y2="5" stroke="#888" stroke-width="1" opacity="1"/><line transform="translate(30,0)" x2="0" y2="5" stroke="#888" stroke-width="1" opacity="1"/><line transform="translate(51,0)" x2="0" y2="5" stroke="#888" stroke-width="1" opacity="1"/><line transform="translate(72,0)" x2="0" y2="5" stroke="#888" stroke-width="1" opacity="1"/><line transform="translate(93,0)" x2="0" y2="5" stroke="#888" stroke-width="1" opacity="1"/><line transform="translate(115,0)" x2="0" y2="5" stroke="#888" stroke-width="1" opacity="1"/><line transform="translate(134,0)" x2="0" y2="5" stroke="#888" stroke-width="1" opacity="1"/><line transform="translate(156,0)" x2="0" y2="5" stroke="#888" stroke-width="1" opacity="1"/><line transform="translate(177,0)" x2="0" y2="5" stroke="#888" stroke-width="1" opacity="1"/><line transform="translate(198,0)" x2="0" y2="5" stroke="#888" stroke-width="1" opacity="1"/><line transform="translate(219,0)" x2="0" y2="5" stroke="#888" stroke-width="1" opacity="1"/><line transform="translate(240,0)" x2="0" y2="5" stroke="#888" stroke-width="1" opacity="1"/><line transform="translate(262,0)" x2="0" y2="5" stroke="#888" stroke-width="1" opacity="1"/><line transform="translate(282,0)" x2="0" y2="5" stroke="#888" stroke-width="1" opacity="1"/><line transform="translate(304,0)" x2="0" y2="5" stroke="#888" stroke-width="1" opacity="1"/><line transform="translate(325,0)" x2="0" y2="5" stroke="#888" stroke-width="1" opacity="1"/><line transform="translate(346,0)" x2="0" y2="5" stroke="#888" stroke-width="1" opacity="1"/><line transform="translate(368,0)" x2="0" y2="5" stroke="#888" stroke-width="1" opacity="1"/><line transform="translate(387,0)" x2="0" y2="5" stroke="#888" stroke-width="1" opacity="1"/><line transform="translate(408,0)" x2="0" y2="5" stroke="#888" stroke-width="1" opacity="1"/><line transform="translate(429,0)" x2="0" y2="5" stroke="#888" stroke-width="1" opacity="1"/><line transform="translate(451,0)" x2="0" y2="5" stroke="#888" stroke-width="1" opacity="1"/><line transform="translate(471,0)" x2="0" y2="5" stroke="#888" stroke-width="1" opacity="1"/><line transform="translate(493,0)" x2="0" y2="5" stroke="#888" stroke-width="1" opacity="1"/></g><g class="mark-text role-axis-label" pointer-events="none"><text text-anchor="end" transform="translate(9,7) rotate(270) translate(0,4)" font-family="sans-serif" font-size="13px" fill="#000" opacity="1">Sep-2024</text><text text-anchor="end" transform="translate(29.76923076923077,7) rotate(270) translate(0,4)" font-family="sans-serif" font-size="13px" fill="#000" opacity="1">Oct-2024</text><text text-anchor="end" transform="translate(51.23076923076923,7) rotate(270) translate(0,4)" font-family="sans-serif" font-size="13px" fill="#000" opacity="1">Nov-2024</text><text text-anchor="end" transform="translate(72.02884615384615,7) rotate(270) translate(0,4)" font-family="sans-serif" font-size="13px" fill="#000" opacity="1">Dec-2024</text><text text-anchor="end" transform="translate(93.49038461538461,7) rotate(270) translate(0,4)" font-family="sans-serif" font-size="13px" fill="#000" opacity="1">Jan-2025</text><text text-anchor="end" transform="translate(114.95192307692308,7) rotate(270) translate(0,4)" font-family="sans-serif" font-size="13px" fill="#000" opacity="1">Feb-2025</text><text text-anchor="end" transform="translate(134.33653846153845,7) rotate(270) translate(0,4)" font-family="sans-serif" font-size="13px" fill="#000" opacity="1">Mar-2025</text><text text-anchor="end" transform="translate(155.76923076923077,7) rotate(270) translate(0,4)" font-family="sans-serif" font-size="13px" fill="#000" opacity="1">Apr-2025</text><text text-anchor="end" transform="translate(176.53846153846152,7) rotate(270) translate(0,4)" font-family="sans-serif" font-size="13px" fill="#000" opacity="1">May-2025</text><text text-anchor="end" transform="translate(198,7) rotate(270) translate(0,4)" font-family="sans-serif" font-size="13px" fill="#000" opacity="1">Jun-2025</text><text text-anchor="end" transform="translate(218.76923076923077,7) rotate(270) translate(0,4)" font-family="sans-serif" font-size="13px" fill="#000" opacity="1">Jul-2025</text><text text-anchor="end" transform="translate(240.23076923076925,7) rotate(270) translate(0,4)" font-family="sans-serif" font-size="13px" fill="#000" opacity="1">Aug-2025</text><text text-anchor="end" transform="translate(261.69230769230774,7) rotate(270) translate(0,4)" font-family="sans-serif" font-size="13px" fill="#000" opacity="1">Sep-2025</text><text text-anchor="end" transform="translate(282.46153846153845,7) rotate(270) translate(0,4)" font-family="sans-serif" font-size="13px" fill="#000" opacity="1">Oct-2025</text><text text-anchor="end" transform="translate(303.9230769230769,7) rotate(270) translate(0,4)" font-family="sans-serif" font-size="13px" fill="#000" opacity="1">Nov-2025</text><text text-anchor="end" transform="translate(324.7211538461538,7) rotate(270) translate(0,4)" font-family="sans-serif" font-size="13px" fill="#000" opacity="1">Dec-2025</text><text text-anchor="end" transform="translate(346.18269230769226,7) rotate(270) translate(0,4)" font-family="sans-serif" font-size="13px" fill="#000" opacity="1">Jan-2026</text><text text-anchor="end" transform="translate(367.6442307692308,7) rotate(270) translate(0,4)" font-family="sans-serif" font-size="13px" fill="#000" opacity="1">Feb-2026</text><text text-anchor="end" transform="translate(387.02884615384613,7) rotate(270) translate(0,4)" font-family="sans-serif" font-size="13px" fill="#000" opacity="1">Mar-2026</text><text text-anchor="end" transform="translate(408.46153846153845,7) rotate(270) translate(0,4)" font-family="sans-serif" font-size="13px" fill="#000" opacity="1">Apr-2026</text><text text-anchor="end" transform="translate(429.2307692307692,7) rotate(270) translate(0,4)" font-family="sans-serif" font-size="13px" fill="#000" opacity="1">May-2026</text><text text-anchor="end" transform="translate(450.69230769230774,7) rotate(270) translate(0,4)" font-family="sans-serif" font-size="13px" fill="#000" opacity="1">Jun-2026</text><text text-anchor="end" transform="translate(471.46153846153845,7) rotate(270) translate(0,4)" font-family="sans-serif" font-size="13px" fill="#000" opacity="1">Jul-2026</text><text text-anchor="end" transform="translate(492.9230769230769,7) rotate(270) translate(0,4)" font-family="sans-serif" font-size="13px" fill="#000" opacity="1">Aug-2026</text></g><g class="mark-rule role-axis-domain" pointer-events="none"><line transform="translate(0,0)" x2="504" y2="0" stroke="#888" stroke-width="1" opacity="1"/></g><g class="mark-text role-axis-title" pointer-events="none"><text text-anchor="middle" transform="translate(252,81.80810546875)" font-family="sans-serif" font-size="17px" font-weight="normal" fill="#000" opacity="1">week</text></g></g><path class="foreground" aria-hidden="true" d="" pointer-events="none" display="none"/></g></g><g class="mark-group role-axis" role="graphics-symbol" aria-roledescription="axis" aria-label="Y-axis titled 'number of sequences (by week)' for a linear scale with values from 0 to 4,000"><g transform="translate(0.5,0.5)"><path class="background" aria-hidden="true" d="M0,0h0v0h0Z" pointer-events="none"/><g><g class="mark-rule role-axis-tick" pointer-events="none"><line transform="translate(0,240)" x2="-5" y2="0" stroke="#888" stroke-width="1" opacity="1"/><line transform="translate(0,180)" x2="-5" y2="0" stroke="#888" stroke-width="1" opacity="1"/><line transform="translate(0,120)" x2="-5" y2="0" stroke="#888" stroke-width="1" opacity="1"/><line transform="translate(0,60)" x2="-5" y2="0" stroke="#888" stroke-width="1" opacity="1"/><line transform="translate(0,0)" x2="-5" y2="0" stroke="#888" stroke-width="1" opacity="1"/></g><g class="mark-text role-axis-label" pointer-events="none"><text text-anchor="end" transform="translate(-7,244)" font-family="sans-serif" font-size="13px" fill="#000" opacity="1">0</text><text text-anchor="end" transform="translate(-7,184)" font-family="sans-serif" font-size="13px" fill="#000" opacity="1">1,000</text><text text-anchor="end" transform="translate(-7,124)" font-family="sans-serif" font-size="13px" fill="#000" opacity="1">2,000</text><text text-anchor="end" transform="translate(-7,64)" font-family="sans-serif" font-size="13px" fill="#000" opacity="1">3,000</text><text text-anchor="end" transform="translate(-7,4)" font-family="sans-serif" font-size="13px" fill="#000" opacity="1">4,000</text></g><g class="mark-rule role-axis-domain" pointer-events="none"><line transform="translate(0,240)" x2="0" y2="-240" stroke="#888" stroke-width="1" opacity="1"/></g><g class="mark-text role-axis-title" pointer-events="none"><text text-anchor="middle" transform="translate(-49.53173828125,120) rotate(-90) translate(0,-4)" font-family="sans-serif" font-size="17px" font-weight="normal" fill="#000" opacity="1">number of sequences (by week)</text></g></g><path class="foreground" aria-hidden="true" d="" pointer-events="none" display="none"/></g></g><g class="mark-group role-scope pathgroup" role="graphics-object" aria-roledescription="group mark container"><g transform="translate(0,0)"><path class="background" aria-hidden="true" d="M0,0h504v240h-504Z"/><g><g class="mark-area role-mark marks" role="graphics-object" aria-roledescription="area mark container"><path aria-label="week: Aug-2024; number of sequences (by week): 15; category_label: 1 mutation different; category_rank: 1; category: 1 mutation different; n_sequences: 15.0" role="graphics-symbol" aria-roledescription="area mark" d="M0,239.04L4.846,239.04L4.846,236.34L9.692,236.34L9.692,233.52L14.538,233.52L14.538,234.84L19.385,234.84L19.385,235.5L24.231,235.5L24.231,236.88L29.077,236.88L29.077,235.14L33.923,235.14L33.923,236.46L38.769,236.46L38.769,235.14L43.615,235.14L43.615,237.06L48.462,237.06L48.462,234.54L53.337,234.54L53.337,234.84L58.183,234.84L58.183,234.42L63.029,234.42L63.029,231.3L67.875,231.3L67.875,229.62L72.721,229.62L72.721,226.98L77.567,226.98L77.567,223.38L82.413,223.38L82.413,218.34L87.26,218.34L87.26,216.24L92.106,216.24L92.106,215.04L96.952,215.04L96.952,216.54L101.798,216.54L101.798,214.56L106.644,214.56L106.644,208.44L111.49,208.44L111.49,208.56L116.337,208.56L116.337,214.86L121.183,214.86L121.183,217.56L126.029,217.56L126.029,222.78L130.875,222.78L130.875,225.84L135.721,225.84L135.721,227.1L140.538,227.1L140.538,229.08L145.385,229.08L145.385,231.18L150.231,231.18L150.231,234.54L155.077,234.54L155.077,235.56L159.923,235.56L159.923,237.12L164.769,237.12L164.769,237.54L169.615,237.54L169.615,238.14L174.462,238.14L174.462,238.2L179.308,238.2L179.308,238.74L184.154,238.74L184.154,238.38L189,238.38L189,238.74L193.846,238.74L193.846,237.9L198.692,237.9L198.692,237.06L203.538,237.06L203.538,238.08L208.385,238.08L208.385,237.9L213.231,237.9L213.231,238.5L218.077,238.5L218.077,237.84L222.923,237.84L222.923,237.54L227.769,237.54L227.769,237.6L232.615,237.6L232.615,236.58L237.462,236.58L237.462,237.12L242.308,237.12L242.308,236.22L247.154,236.22L247.154,235.38L252,235.38L252,234.48L256.846,234.48L256.846,232.5L261.692,232.5L261.692,230.1L266.538,230.1L266.538,226.92L271.385,226.92L271.385,223.14L276.231,223.14L276.231,220.44L281.077,220.44L281.077,213.78L285.923,213.78L285.923,209.1L290.769,209.1L290.769,203.28L295.615,203.28L295.615,193.98L300.462,193.98L300.462,187.08L305.337,187.08L305.337,178.38L310.183,178.38L310.183,168.96L315.029,168.96L315.029,154.44L319.875,154.44L319.875,118.14L324.721,118.14L324.721,91.26L329.567,91.26L329.567,84.3L334.413,84.3L334.413,45.12L339.26,45.12L339.26,119.4L344.106,119.4L344.106,131.88L348.952,131.88L348.952,133.86L353.798,133.86L353.798,155.94L358.644,155.94L358.644,160.26L363.49,160.26L363.49,165.9L368.337,165.9L368.337,163.68L373.183,163.68L373.183,180.66L378.029,180.66L378.029,190.92L382.875,190.92L382.875,198.84L387.721,198.84L387.721,204.96L392.538,204.96L392.538,214.08L397.385,214.08L397.385,217.5L402.231,217.5L402.231,221.34L407.077,221.34L407.077,225.18L411.923,225.18L411.923,224.64L416.769,224.64L416.769,229.02L421.615,229.02L421.615,230.16L426.462,230.16L426.462,229.74L431.308,229.74L431.308,230.7L436.154,230.7L436.154,229.98L441,229.98L441,230.58L445.846,230.58L445.846,229.98L450.692,229.98L450.692,231.84L455.538,231.84L455.538,231.9L460.385,231.9L460.385,229.38L465.231,229.38L465.231,234.72L470.077,234.72L470.077,236.28L474.923,236.28L474.923,236.46L479.769,236.46L479.769,236.88L484.615,236.88L484.615,237.78L489.462,237.78L489.462,238.8L494.308,238.8L494.308,239.58L499.154,239.58L499.154,239.7L504,239.7L504,239.94L504,239.94L504,239.88L499.154,239.88L499.154,239.64L494.308,239.64L494.308,239.22L489.462,239.22L489.462,238.68L484.615,238.68L484.615,238.14L479.769,238.14L479.769,238.02L474.923,238.02L474.923,237.6L470.077,237.6L470.077,237L465.231,237L465.231,233.04L460.385,233.04L460.385,234.78L455.538,234.78L455.538,236.22L450.692,236.22L450.692,233.64L445.846,233.64L445.846,235.26L441,235.26L441,234.6L436.154,234.6L436.154,236.16L431.308,236.16L431.308,235.02L426.462,235.02L426.462,234.12L421.615,234.12L421.615,234.6L416.769,234.6L416.769,233.1L411.923,233.1L411.923,231.84L407.077,231.84L407.077,229.32L402.231,229.32L402.231,227.46L397.385,227.46L397.385,225.06L392.538,225.06L392.538,219.84L387.721,219.84L387.721,215.88L382.875,215.88L382.875,211.92L378.029,211.92L378.029,205.74L373.183,205.74L373.183,195.96L368.337,195.96L368.337,197.4L363.49,197.4L363.49,191.64L358.644,191.64L358.644,191.52L353.798,191.52L353.798,176.22L348.952,176.22L348.952,179.46L344.106,179.46L344.106,168.54L339.26,168.54L339.26,127.62L334.413,127.62L334.413,149.28L329.567,149.28L329.567,152.04L324.721,152.04L324.721,168.6L319.875,168.6L319.875,188.94L315.029,188.94L315.029,194.94L310.183,194.94L310.183,203.1L305.337,203.1L305.337,206.88L300.462,206.88L300.462,211.8L295.615,211.8L295.615,217.62L290.769,217.62L290.769,221.16L285.923,221.16L285.923,222.66L281.077,222.66L281.077,227.52L276.231,227.52L276.231,229.74L271.385,229.74L271.385,231.9L266.538,231.9L266.538,233.82L261.692,233.82L261.692,234.9L256.846,234.9L256.846,236.94L252,236.94L252,237.66L247.154,237.66L247.154,237.9L242.308,237.9L242.308,238.2L237.462,238.2L237.462,238.32L232.615,238.32L232.615,238.98L227.769,238.98L227.769,238.68L222.923,238.68L222.923,238.68L218.077,238.68L218.077,238.92L213.231,238.92L213.231,238.8L208.385,238.8L208.385,238.86L203.538,238.86L203.538,238.74L198.692,238.74L198.692,238.32L193.846,238.32L193.846,239.28L189,239.28L189,239.52L184.154,239.52L184.154,239.34L179.308,239.34L179.308,239.4L174.462,239.4L174.462,239.22L169.615,239.22L169.615,238.98L164.769,238.98L164.769,239.22L159.923,239.22L159.923,238.56L155.077,238.56L155.077,238.14L150.231,238.14L150.231,237.3L145.385,237.3L145.385,237.3L140.538,237.3L140.538,236.52L135.721,236.52L135.721,236.46L130.875,236.46L130.875,237.96L126.029,237.96L126.029,236.46L121.183,236.46L121.183,236.22L116.337,236.22L116.337,237L111.49,237L111.49,237.84L106.644,237.84L106.644,238.08L101.798,238.08L101.798,237.78L96.952,237.78L96.952,236.88L92.106,236.88L92.106,237.18L87.26,237.18L87.26,237.54L82.413,237.54L82.413,237.42L77.567,237.42L77.567,239.04L72.721,239.04L72.721,238.62L67.875,238.62L67.875,238.92L63.029,238.92L63.029,239.34L58.183,239.34L58.183,239.58L53.337,239.58L53.337,239.22L48.462,239.22L48.462,239.76L43.615,239.76L43.615,239.16L38.769,239.16L38.769,239.64L33.923,239.64L33.923,239.46L29.077,239.46L29.077,239.64L24.231,239.64L24.231,239.94L19.385,239.94L19.385,239.64L14.538,239.64L14.538,239.88L9.692,239.88L9.692,239.82L4.846,239.82L4.846,239.94L0,239.94Z" fill="#4f0d6c" opacity="1"/></g></g><path class="foreground" aria-hidden="true" d="" display="none"/></g><g transform="translate(0,0)"><path class="background" aria-hidden="true" d="M0,0h504v240h-504Z"/><g><g class="mark-area role-mark marks" role="graphics-object" aria-roledescription="area mark container"><path aria-label="week: Aug-2024; number of sequences (by week): 9; category_label: 2 mutations different; category_rank: 2; category: 2 mutations different; n_sequences: 9.00" role="graphics-symbol" aria-roledescription="area mark" d="M0,238.5L4.846,238.5L4.846,232.5L9.692,232.5L9.692,228.9L14.538,228.9L14.538,230.7L19.385,230.7L19.385,231.42L24.231,231.42L24.231,233.34L29.077,233.34L29.077,231.6L33.923,231.6L33.923,233.22L38.769,233.22L38.769,231.78L43.615,231.78L43.615,233.22L48.462,233.22L48.462,231.18L53.337,231.18L53.337,228.6L58.183,228.6L58.183,228.36L63.029,228.36L63.029,225.96L67.875,225.96L67.875,220.44L72.721,220.44L72.721,219.24L77.567,219.24L77.567,211.86L82.413,211.86L82.413,204.36L87.26,204.36L87.26,200.88L92.106,200.88L92.106,195L96.952,195L96.952,193.92L101.798,193.92L101.798,187.8L106.644,187.8L106.644,174.66L111.49,174.66L111.49,175.14L116.337,175.14L116.337,183.3L121.183,183.3L121.183,186.84L126.029,186.84L126.029,197.4L130.875,197.4L130.875,201.6L135.721,201.6L135.721,205.08L140.538,205.08L140.538,213.3L145.385,213.3L145.385,216.78L150.231,216.78L150.231,224.16L155.077,224.16L155.077,225.84L159.923,225.84L159.923,228.54L164.769,228.54L164.769,232.32L169.615,232.32L169.615,233.04L174.462,233.04L174.462,233.64L179.308,233.64L179.308,235.08L184.154,235.08L184.154,234.48L189,234.48L189,235.02L193.846,235.02L193.846,235.5L198.692,235.5L198.692,235.2L203.538,235.2L203.538,236.46L208.385,236.46L208.385,236.4L213.231,236.4L213.231,237.12L218.077,237.12L218.077,235.2L222.923,235.2L222.923,234.36L227.769,234.36L227.769,235.62L232.615,235.62L232.615,233.76L237.462,233.76L237.462,235.56L242.308,235.56L242.308,234.36L247.154,234.36L247.154,233.76L252,233.76L252,233.1L256.846,233.1L256.846,230.1L261.692,230.1L261.692,228.06L266.538,228.06L266.538,224.58L271.385,224.58L271.385,220.44L276.231,220.44L276.231,217.62L281.077,217.62L281.077,210.42L285.923,210.42L285.923,203.64L290.769,203.64L290.769,199.5L295.615,199.5L295.615,188.34L300.462,188.34L300.462,180.9L305.337,180.9L305.337,169.98L310.183,169.98L310.183,160.08L315.029,160.08L315.029,142.44L319.875,142.44L319.875,99.66L324.721,99.66L324.721,67.2L329.567,67.2L329.567,59.82L334.413,59.82L334.413,18.24L339.26,18.24L339.26,101.22L344.106,101.22L344.106,116.04L348.952,116.04L348.952,116.82L353.798,116.82L353.798,141.12L358.644,141.12L358.644,146.94L363.49,146.94L363.49,153.9L368.337,153.9L368.337,151.62L373.183,151.62L373.183,171.78L378.029,171.78L378.029,182.52L382.875,182.52L382.875,191.94L387.721,191.94L387.721,198.18L392.538,198.18L392.538,209.88L397.385,209.88L397.385,213.06L402.231,213.06L402.231,217.44L407.077,217.44L407.077,221.94L411.923,221.94L411.923,221.46L416.769,221.46L416.769,226.86L421.615,226.86L421.615,227.88L426.462,227.88L426.462,227.7L431.308,227.7L431.308,229.32L436.154,229.32L436.154,227.82L441,227.82L441,228.42L445.846,228.42L445.846,228.78L450.692,228.78L450.692,230.04L455.538,230.04L455.538,230.04L460.385,230.04L460.385,227.82L465.231,227.82L465.231,234.12L470.077,234.12L470.077,235.56L474.923,235.56L474.923,236.16L479.769,236.16L479.769,236.1L484.615,236.1L484.615,237.36L489.462,237.36L489.462,238.38L494.308,238.38L494.308,239.58L499.154,239.58L499.154,239.7L504,239.7L504,239.94L504,239.94L504,239.7L499.154,239.7L499.154,239.58L494.308,239.58L494.308,238.8L489.462,238.8L489.462,237.78L484.615,237.78L484.615,236.88L479.769,236.88L479.769,236.46L474.923,236.46L474.923,236.28L470.077,236.28L470.077,234.72L465.231,234.72L465.231,229.38L460.385,229.38L460.385,231.9L455.538,231.9L455.538,231.84L450.692,231.84L450.692,229.98L445.846,229.98L445.846,230.58L441,230.58L441,229.98L436.154,229.98L436.154,230.7L431.308,230.7L431.308,229.74L426.462,229.74L426.462,230.16L421.615,230.16L421.615,229.02L416.769,229.02L416.769,224.64L411.923,224.64L411.923,225.18L407.077,225.18L407.077,221.34L402.231,221.34L402.231,217.5L397.385,217.5L397.385,214.08L392.538,214.08L392.538,204.96L387.721,204.96L387.721,198.84L382.875,198.84L382.875,190.92L378.029,190.92L378.029,180.66L373.183,180.66L373.183,163.68L368.337,163.68L368.337,165.9L363.49,165.9L363.49,160.26L358.644,160.26L358.644,155.94L353.798,155.94L353.798,133.86L348.952,133.86L348.952,131.88L344.106,131.88L344.106,119.4L339.26,119.4L339.26,45.12L334.413,45.12L334.413,84.3L329.567,84.3L329.567,91.26L324.721,91.26L324.721,118.14L319.875,118.14L319.875,154.44L315.029,154.44L315.029,168.96L310.183,168.96L310.183,178.38L305.337,178.38L305.337,187.08L300.462,187.08L300.462,193.98L295.615,193.98L295.615,203.28L290.769,203.28L290.769,209.1L285.923,209.1L285.923,213.78L281.077,213.78L281.077,220.44L276.231,220.44L276.231,223.14L271.385,223.14L271.385,226.92L266.538,226.92L266.538,230.1L261.692,230.1L261.692,232.5L256.846,232.5L256.846,234.48L252,234.48L252,235.38L247.154,235.38L247.154,236.22L242.308,236.22L242.308,237.12L237.462,237.12L237.462,236.58L232.615,236.58L232.615,237.6L227.769,237.6L227.769,237.54L222.923,237.54L222.923,237.84L218.077,237.84L218.077,238.5L213.231,238.5L213.231,237.9L208.385,237.9L208.385,238.08L203.538,238.08L203.538,237.06L198.692,237.06L198.692,237.9L193.846,237.9L193.846,238.74L189,238.74L189,238.38L184.154,238.38L184.154,238.74L179.308,238.74L179.308,238.2L174.462,238.2L174.462,238.14L169.615,238.14L169.615,237.54L164.769,237.54L164.769,237.12L159.923,237.12L159.923,235.56L155.077,235.56L155.077,234.54L150.231,234.54L150.231,231.18L145.385,231.18L145.385,229.08L140.538,229.08L140.538,227.1L135.721,227.1L135.721,225.84L130.875,225.84L130.875,222.78L126.029,222.78L126.029,217.56L121.183,217.56L121.183,214.86L116.337,214.86L116.337,208.56L111.49,208.56L111.49,208.44L106.644,208.44L106.644,214.56L101.798,214.56L101.798,216.54L96.952,216.54L96.952,215.04L92.106,215.04L92.106,216.24L87.26,216.24L87.26,218.34L82.413,218.34L82.413,223.38L77.567,223.38L77.567,226.98L72.721,226.98L72.721,229.62L67.875,229.62L67.875,231.3L63.029,231.3L63.029,234.42L58.183,234.42L58.183,234.84L53.337,234.84L53.337,234.54L48.462,234.54L48.462,237.06L43.615,237.06L43.615,235.14L38.769,235.14L38.769,236.46L33.923,236.46L33.923,235.14L29.077,235.14L29.077,236.88L24.231,236.88L24.231,235.5L19.385,235.5L19.385,234.84L14.538,234.84L14.538,233.52L9.692,233.52L9.692,236.34L4.846,236.34L4.846,239.04L0,239.04Z" fill="#ae305c" opacity="1"/></g></g><path class="foreground" aria-hidden="true" d="" display="none"/></g><g transform="translate(0,0)"><path class="background" aria-hidden="true" d="M0,0h504v240h-504Z"/><g><g class="mark-area role-mark marks" role="graphics-object" aria-roledescription="area mark container"><path aria-label="week: Aug-2024; number of sequences (by week): 8; category_label: 3 mutations different; category_rank: 3; category: 3 mutations different; n_sequences: 8.00" role="graphics-symbol" aria-roledescription="area mark" d="M0,238.02L4.846,238.02L4.846,229.14L9.692,229.14L9.692,226.08L14.538,226.08L14.538,227.04L19.385,227.04L19.385,228.9L24.231,228.9L24.231,231.18L29.077,231.18L29.077,227.64L33.923,227.64L33.923,230.22L38.769,230.22L38.769,228.78L43.615,228.78L43.615,229.8L48.462,229.8L48.462,227.46L53.337,227.46L53.337,224.34L58.183,224.34L58.183,222.48L63.029,222.48L63.029,219.48L67.875,219.48L67.875,214.2L72.721,214.2L72.721,213.84L77.567,213.84L77.567,205.98L82.413,205.98L82.413,195.48L87.26,195.48L87.26,192.78L92.106,192.78L92.106,182.58L96.952,182.58L96.952,179.82L101.798,179.82L101.798,173.82L106.644,173.82L106.644,157.08L111.49,157.08L111.49,154.56L116.337,154.56L116.337,164.46L121.183,164.46L121.183,168.66L126.029,168.66L126.029,180.84L130.875,180.84L130.875,186.48L135.721,186.48L135.721,190.98L140.538,190.98L140.538,199.92L145.385,199.92L145.385,205.44L150.231,205.44L150.231,216.42L155.077,216.42L155.077,218.52L159.923,218.52L159.923,220.92L164.769,220.92L164.769,226.56L169.615,226.56L169.615,228.96L174.462,228.96L174.462,230.4L179.308,230.4L179.308,231.48L184.154,231.48L184.154,229.14L189,229.14L189,232.68L193.846,232.68L193.846,233.22L198.692,233.22L198.692,232.32L203.538,232.32L203.538,233.76L208.385,233.76L208.385,234.36L213.231,234.36L213.231,234.72L218.077,234.72L218.077,233.4L222.923,233.4L222.923,232.74L227.769,232.74L227.769,233.94L232.615,233.94L232.615,231.3L237.462,231.3L237.462,233.76L242.308,233.76L242.308,231.78L247.154,231.78L247.154,231.9L252,231.9L252,230.7L256.846,230.7L256.846,228.66L261.692,228.66L261.692,226.74L266.538,226.74L266.538,222.54L271.385,222.54L271.385,217.86L276.231,217.86L276.231,216.6L281.077,216.6L281.077,207.9L285.923,207.9L285.923,201.54L290.769,201.54L290.769,196.92L295.615,196.92L295.615,185.94L300.462,185.94L300.462,177.96L305.337,177.96L305.337,167.22L310.183,167.22L310.183,157.8L315.029,157.8L315.029,140.4L319.875,140.4L319.875,95.94L324.721,95.94L324.721,62.34L329.567,62.34L329.567,54.72L334.413,54.72L334.413,13.14L339.26,13.14L339.26,97.26L344.106,97.26L344.106,112.56L348.952,112.56L348.952,113.64L353.798,113.64L353.798,137.64L358.644,137.64L358.644,144.18L363.49,144.18L363.49,151.32L368.337,151.32L368.337,149.4L373.183,149.4L373.183,169.14L378.029,169.14L378.029,179.94L382.875,179.94L382.875,189.78L387.721,189.78L387.721,196.44L392.538,196.44L392.538,208.26L397.385,208.26L397.385,212.1L402.231,212.1L402.231,216.6L407.077,216.6L407.077,221.28L411.923,221.28L411.923,220.44L416.769,220.44L416.769,226.14L421.615,226.14L421.615,227.16L426.462,227.16L426.462,227.28L431.308,227.28L431.308,228.9L436.154,228.9L436.154,227.4L441,227.4L441,228L445.846,228L445.846,228.3L450.692,228.3L450.692,229.44L455.538,229.44L455.538,229.14L460.385,229.14L460.385,226.32L465.231,226.32L465.231,233.52L470.077,233.52L470.077,234.84L474.923,234.84L474.923,235.32L479.769,235.32L479.769,235.74L484.615,235.74L484.615,236.76L489.462,236.76L489.462,237.78L494.308,237.78L494.308,239.52L499.154,239.52L499.154,239.7L504,239.7L504,239.94L504,239.94L504,239.7L499.154,239.7L499.154,239.58L494.308,239.58L494.308,238.38L489.462,238.38L489.462,237.36L484.615,237.36L484.615,236.1L479.769,236.1L479.769,236.16L474.923,236.16L474.923,235.56L470.077,235.56L470.077,234.12L465.231,234.12L465.231,227.82L460.385,227.82L460.385,230.04L455.538,230.04L455.538,230.04L450.692,230.04L450.692,228.78L445.846,228.78L445.846,228.42L441,228.42L441,227.82L436.154,227.82L436.154,229.32L431.308,229.32L431.308,227.7L426.462,227.7L426.462,227.88L421.615,227.88L421.615,226.86L416.769,226.86L416.769,221.46L411.923,221.46L411.923,221.94L407.077,221.94L407.077,217.44L402.231,217.44L402.231,213.06L397.385,213.06L397.385,209.88L392.538,209.88L392.538,198.18L387.721,198.18L387.721,191.94L382.875,191.94L382.875,182.52L378.029,182.52L378.029,171.78L373.183,171.78L373.183,151.62L368.337,151.62L368.337,153.9L363.49,153.9L363.49,146.94L358.644,146.94L358.644,141.12L353.798,141.12L353.798,116.82L348.952,116.82L348.952,116.04L344.106,116.04L344.106,101.22L339.26,101.22L339.26,18.24L334.413,18.24L334.413,59.82L329.567,59.82L329.567,67.2L324.721,67.2L324.721,99.66L319.875,99.66L319.875,142.44L315.029,142.44L315.029,160.08L310.183,160.08L310.183,169.98L305.337,169.98L305.337,180.9L300.462,180.9L300.462,188.34L295.615,188.34L295.615,199.5L290.769,199.5L290.769,203.64L285.923,203.64L285.923,210.42L281.077,210.42L281.077,217.62L276.231,217.62L276.231,220.44L271.385,220.44L271.385,224.58L266.538,224.58L266.538,228.06L261.692,228.06L261.692,230.1L256.846,230.1L256.846,233.1L252,233.1L252,233.76L247.154,233.76L247.154,234.36L242.308,234.36L242.308,235.56L237.462,235.56L237.462,233.76L232.615,233.76L232.615,235.62L227.769,235.62L227.769,234.36L222.923,234.36L222.923,235.2L218.077,235.2L218.077,237.12L213.231,237.12L213.231,236.4L208.385,236.4L208.385,236.46L203.538,236.46L203.538,235.2L198.692,235.2L198.692,235.5L193.846,235.5L193.846,235.02L189,235.02L189,234.48L184.154,234.48L184.154,235.08L179.308,235.08L179.308,233.64L174.462,233.64L174.462,233.04L169.615,233.04L169.615,232.32L164.769,232.32L164.769,228.54L159.923,228.54L159.923,225.84L155.077,225.84L155.077,224.16L150.231,224.16L150.231,216.78L145.385,216.78L145.385,213.3L140.538,213.3L140.538,205.08L135.721,205.08L135.721,201.6L130.875,201.6L130.875,197.4L126.029,197.4L126.029,186.84L121.183,186.84L121.183,183.3L116.337,183.3L116.337,175.14L111.49,175.14L111.49,174.66L106.644,174.66L106.644,187.8L101.798,187.8L101.798,193.92L96.952,193.92L96.952,195L92.106,195L92.106,200.88L87.26,200.88L87.26,204.36L82.413,204.36L82.413,211.86L77.567,211.86L77.567,219.24L72.721,219.24L72.721,220.44L67.875,220.44L67.875,225.96L63.029,225.96L63.029,228.36L58.183,228.36L58.183,228.6L53.337,228.6L53.337,231.18L48.462,231.18L48.462,233.22L43.615,233.22L43.615,231.78L38.769,231.78L38.769,233.22L33.923,233.22L33.923,231.6L29.077,231.6L29.077,233.34L24.231,233.34L24.231,231.42L19.385,231.42L19.385,230.7L14.538,230.7L14.538,228.9L9.692,228.9L9.692,232.5L4.846,232.5L4.846,238.5L0,238.5Z" fill="#f3761b" opacity="1"/></g></g><path class="foreground" aria-hidden="true" d="" display="none"/></g><g transform="translate(0,0)"><path class="background" aria-hidden="true" d="M0,0h504v240h-504Z"/><g><g class="mark-area role-mark marks" role="graphics-object" aria-roledescription="area mark container"><path aria-label="week: Aug-2024; number of sequences (by week): 1; category_label: identical; category_rank: 0; category: identical; n_sequences: 1.00" role="graphics-symbol" aria-roledescription="area mark" d="M0,239.94L4.846,239.94L4.846,239.82L9.692,239.82L9.692,239.88L14.538,239.88L14.538,239.64L19.385,239.64L19.385,239.94L24.231,239.94L24.231,239.64L29.077,239.64L29.077,239.46L33.923,239.46L33.923,239.64L38.769,239.64L38.769,239.16L43.615,239.16L43.615,239.76L48.462,239.76L48.462,239.22L53.337,239.22L53.337,239.58L58.183,239.58L58.183,239.34L63.029,239.34L63.029,238.92L67.875,238.92L67.875,238.62L72.721,238.62L72.721,239.04L77.567,239.04L77.567,237.42L82.413,237.42L82.413,237.54L87.26,237.54L87.26,237.18L92.106,237.18L92.106,236.88L96.952,236.88L96.952,237.78L101.798,237.78L101.798,238.08L106.644,238.08L106.644,237.84L111.49,237.84L111.49,237L116.337,237L116.337,236.22L121.183,236.22L121.183,236.46L126.029,236.46L126.029,237.96L130.875,237.96L130.875,236.46L135.721,236.46L135.721,236.52L140.538,236.52L140.538,237.3L145.385,237.3L145.385,237.3L150.231,237.3L150.231,238.14L155.077,238.14L155.077,238.56L159.923,238.56L159.923,239.22L164.769,239.22L164.769,238.98L169.615,238.98L169.615,239.22L174.462,239.22L174.462,239.4L179.308,239.4L179.308,239.34L184.154,239.34L184.154,239.52L189,239.52L189,239.28L193.846,239.28L193.846,238.32L198.692,238.32L198.692,238.74L203.538,238.74L203.538,238.86L208.385,238.86L208.385,238.8L213.231,238.8L213.231,238.92L218.077,238.92L218.077,238.68L222.923,238.68L222.923,238.68L227.769,238.68L227.769,238.98L232.615,238.98L232.615,238.32L237.462,238.32L237.462,238.2L242.308,238.2L242.308,237.9L247.154,237.9L247.154,237.66L252,237.66L252,236.94L256.846,236.94L256.846,234.9L261.692,234.9L261.692,233.82L266.538,233.82L266.538,231.9L271.385,231.9L271.385,229.74L276.231,229.74L276.231,227.52L281.077,227.52L281.077,222.66L285.923,222.66L285.923,221.16L290.769,221.16L290.769,217.62L295.615,217.62L295.615,211.8L300.462,211.8L300.462,206.88L305.337,206.88L305.337,203.1L310.183,203.1L310.183,194.94L315.029,194.94L315.029,188.94L319.875,188.94L319.875,168.6L324.721,168.6L324.721,152.04L329.567,152.04L329.567,149.28L334.413,149.28L334.413,127.62L339.26,127.62L339.26,168.54L344.106,168.54L344.106,179.46L348.952,179.46L348.952,176.22L353.798,176.22L353.798,191.52L358.644,191.52L358.644,191.64L363.49,191.64L363.49,197.4L368.337,197.4L368.337,195.96L373.183,195.96L373.183,205.74L378.029,205.74L378.029,211.92L382.875,211.92L382.875,215.88L387.721,215.88L387.721,219.84L392.538,219.84L392.538,225.06L397.385,225.06L397.385,227.46L402.231,227.46L402.231,229.32L407.077,229.32L407.077,231.84L411.923,231.84L411.923,233.1L416.769,233.1L416.769,234.6L421.615,234.6L421.615,234.12L426.462,234.12L426.462,235.02L431.308,235.02L431.308,236.16L436.154,236.16L436.154,234.6L441,234.6L441,235.26L445.846,235.26L445.846,233.64L450.692,233.64L450.692,236.22L455.538,236.22L455.538,234.78L460.385,234.78L460.385,233.04L465.231,233.04L465.231,237L470.077,237L470.077,237.6L474.923,237.6L474.923,238.02L479.769,238.02L479.769,238.14L484.615,238.14L484.615,238.68L489.462,238.68L489.462,239.22L494.308,239.22L494.308,239.64L499.154,239.64L499.154,239.88L504,239.88L504,239.94L504,240L504,240L499.154,240L499.154,240L494.308,240L494.308,240L489.462,240L489.462,240L484.615,240L484.615,240L479.769,240L479.769,240L474.923,240L474.923,240L470.077,240L470.077,240L465.231,240L465.231,240L460.385,240L460.385,240L455.538,240L455.538,240L450.692,240L450.692,240L445.846,240L445.846,240L441,240L441,240L436.154,240L436.154,240L431.308,240L431.308,240L426.462,240L426.462,240L421.615,240L421.615,240L416.769,240L416.769,240L411.923,240L411.923,240L407.077,240L407.077,240L402.231,240L402.231,240L397.385,240L397.385,240L392.538,240L392.538,240L387.721,240L387.721,240L382.875,240L382.875,240L378.029,240L378.029,240L373.183,240L373.183,240L368.337,240L368.337,240L363.49,240L363.49,240L358.644,240L358.644,240L353.798,240L353.798,240L348.952,240L348.952,240L344.106,240L344.106,240L339.26,240L339.26,240L334.413,240L334.413,240L329.567,240L329.567,240L324.721,240L324.721,240L319.875,240L319.875,240L315.029,240L315.029,240L310.183,240L310.183,240L305.337,240L305.337,240L300.462,240L300.462,240L295.615,240L295.615,240L290.769,240L290.769,240L285.923,240L285.923,240L281.077,240L281.077,240L276.231,240L276.231,240L271.385,240L271.385,240L266.538,240L266.538,240L261.692,240L261.692,240L256.846,240L256.846,240L252,240L252,240L247.154,240L247.154,240L242.308,240L242.308,240L237.462,240L237.462,240L232.615,240L232.615,240L227.769,240L227.769,240L222.923,240L222.923,240L218.077,240L218.077,240L213.231,240L213.231,240L208.385,240L208.385,240L203.538,240L203.538,240L198.692,240L198.692,240L193.846,240L193.846,240L189,240L189,240L184.154,240L184.154,240L179.308,240L179.308,240L174.462,240L174.462,240L169.615,240L169.615,240L164.769,240L164.769,240L159.923,240L159.923,240L155.077,240L155.077,240L150.231,240L150.231,240L145.385,240L145.385,240L140.538,240L140.538,240L135.721,240L135.721,240L130.875,240L130.875,240L126.029,240L126.029,240L121.183,240L121.183,240L116.337,240L116.337,240L111.49,240L111.49,240L106.644,240L106.644,240L101.798,240L101.798,240L96.952,240L96.952,240L92.106,240L92.106,240L87.26,240L87.26,240L82.413,240L82.413,240L77.567,240L77.567,240L72.721,240L72.721,240L67.875,240L67.875,240L63.029,240L63.029,240L58.183,240L58.183,240L53.337,240L53.337,240L48.462,240L48.462,240L43.615,240L43.615,240L38.769,240L38.769,240L33.923,240L33.923,240L29.077,240L29.077,240L24.231,240L24.231,240L19.385,240L19.385,240L14.538,240L14.538,240L9.692,240L9.692,240L4.846,240L4.846,240L0,240Z" fill="#000004" opacity="1"/></g></g><path class="foreground" aria-hidden="true" d="" display="none"/></g><g transform="translate(0,0)"><path class="background" aria-hidden="true" d="M0,0h504v240h-504Z"/><g><g class="mark-area role-mark marks" role="graphics-object" aria-roledescription="area mark container"><path aria-label="week: Aug-2024; number of sequences (by week): 3; category_label: &gt;3 mutations different; category_rank: 4; category: &gt;3 mutations different; n_sequences: 3.00" role="graphics-symbol" aria-roledescription="area mark" d="M0,237.84L4.846,237.84L4.846,227.16L9.692,227.16L9.692,223.74L14.538,223.74L14.538,224.88L19.385,224.88L19.385,226.38L24.231,226.38L24.231,229.56L29.077,229.56L29.077,225.48L33.923,225.48L33.923,227.46L38.769,227.46L38.769,225.72L43.615,225.72L43.615,225.72L48.462,225.72L48.462,223.02L53.337,223.02L53.337,219.36L58.183,219.36L58.183,217.44L63.029,217.44L63.029,213.42L67.875,213.42L67.875,208.86L72.721,208.86L72.721,207.9L77.567,207.9L77.567,197.1L82.413,197.1L82.413,184.98L87.26,184.98L87.26,182.7L92.106,182.7L92.106,171.72L96.952,171.72L96.952,165.48L101.798,165.48L101.798,160.38L106.644,160.38L106.644,142.26L111.49,142.26L111.49,136.32L116.337,136.32L116.337,147.66L121.183,147.66L121.183,156.12L126.029,156.12L126.029,169.74L130.875,169.74L130.875,176.28L135.721,176.28L135.721,182.28L140.538,182.28L140.538,190.98L145.385,190.98L145.385,200.1L150.231,200.1L150.231,211.26L155.077,211.26L155.077,213.42L159.923,213.42L159.923,216.96L164.769,216.96L164.769,222.54L169.615,222.54L169.615,226.14L174.462,226.14L174.462,228.18L179.308,228.18L179.308,227.64L184.154,227.64L184.154,225.72L189,225.72L189,228.3L193.846,228.3L193.846,229.86L198.692,229.86L198.692,229.02L203.538,229.02L203.538,231.12L208.385,231.12L208.385,231.78L213.231,231.78L213.231,232.44L218.077,232.44L218.077,231.48L222.923,231.48L222.923,231.42L227.769,231.42L227.769,232.74L232.615,232.74L232.615,229.62L237.462,229.62L237.462,232.5L242.308,232.5L242.308,230.04L247.154,230.04L247.154,230.28L252,230.28L252,229.38L256.846,229.38L256.846,227.4L261.692,227.4L261.692,225.66L266.538,225.66L266.538,220.98L271.385,220.98L271.385,216.06L276.231,216.06L276.231,214.26L281.077,214.26L281.077,205.5L285.923,205.5L285.923,199.86L290.769,199.86L290.769,194.1L295.615,194.1L295.615,183.9L300.462,183.9L300.462,175.68L305.337,175.68L305.337,164.88L310.183,164.88L310.183,155.88L315.029,155.88L315.029,137.76L319.875,137.76L319.875,93.12L324.721,93.12L324.721,57.72L329.567,57.72L329.567,51.42L334.413,51.42L334.413,10.74L339.26,10.74L339.26,95.46L344.106,95.46L344.106,111.06L348.952,111.06L348.952,112.2L353.798,112.2L353.798,136.32L358.644,136.32L358.644,143.1L363.49,143.1L363.49,150.36L368.337,150.36L368.337,147.96L373.183,147.96L373.183,168.48L378.029,168.48L378.029,179.34L382.875,179.34L382.875,189.12L387.721,189.12L387.721,195.72L392.538,195.72L392.538,207.72L397.385,207.72L397.385,211.32L402.231,211.32L402.231,215.88L407.077,215.88L407.077,220.98L411.923,220.98L411.923,219.96L416.769,219.96L416.769,225.84L421.615,225.84L421.615,227.04L426.462,227.04L426.462,227.22L431.308,227.22L431.308,228.54L436.154,228.54L436.154,227.28L441,227.28L441,227.82L445.846,227.82L445.846,228.3L450.692,228.3L450.692,229.44L455.538,229.44L455.538,228.96L460.385,228.96L460.385,226.08L465.231,226.08L465.231,233.04L470.077,233.04L470.077,234L474.923,234L474.923,234.42L479.769,234.42L479.769,235.08L484.615,235.08L484.615,236.1L489.462,236.1L489.462,237.36L494.308,237.36L494.308,239.52L499.154,239.52L499.154,239.7L504,239.7L504,239.94L504,239.94L504,239.7L499.154,239.7L499.154,239.52L494.308,239.52L494.308,237.78L489.462,237.78L489.462,236.76L484.615,236.76L484.615,235.74L479.769,235.74L479.769,235.32L474.923,235.32L474.923,234.84L470.077,234.84L470.077,233.52L465.231,233.52L465.231,226.32L460.385,226.32L460.385,229.14L455.538,229.14L455.538,229.44L450.692,229.44L450.692,228.3L445.846,228.3L445.846,228L441,228L441,227.4L436.154,227.4L436.154,228.9L431.308,228.9L431.308,227.28L426.462,227.28L426.462,227.16L421.615,227.16L421.615,226.14L416.769,226.14L416.769,220.44L411.923,220.44L411.923,221.28L407.077,221.28L407.077,216.6L402.231,216.6L402.231,212.1L397.385,212.1L397.385,208.26L392.538,208.26L392.538,196.44L387.721,196.44L387.721,189.78L382.875,189.78L382.875,179.94L378.029,179.94L378.029,169.14L373.183,169.14L373.183,149.4L368.337,149.4L368.337,151.32L363.49,151.32L363.49,144.18L358.644,144.18L358.644,137.64L353.798,137.64L353.798,113.64L348.952,113.64L348.952,112.56L344.106,112.56L344.106,97.26L339.26,97.26L339.26,13.14L334.413,13.14L334.413,54.72L329.567,54.72L329.567,62.34L324.721,62.34L324.721,95.94L319.875,95.94L319.875,140.4L315.029,140.4L315.029,157.8L310.183,157.8L310.183,167.22L305.337,167.22L305.337,177.96L300.462,177.96L300.462,185.94L295.615,185.94L295.615,196.92L290.769,196.92L290.769,201.54L285.923,201.54L285.923,207.9L281.077,207.9L281.077,216.6L276.231,216.6L276.231,217.86L271.385,217.86L271.385,222.54L266.538,222.54L266.538,226.74L261.692,226.74L261.692,228.66L256.846,228.66L256.846,230.7L252,230.7L252,231.9L247.154,231.9L247.154,231.78L242.308,231.78L242.308,233.76L237.462,233.76L237.462,231.3L232.615,231.3L232.615,233.94L227.769,233.94L227.769,232.74L222.923,232.74L222.923,233.4L218.077,233.4L218.077,234.72L213.231,234.72L213.231,234.36L208.385,234.36L208.385,233.76L203.538,233.76L203.538,232.32L198.692,232.32L198.692,233.22L193.846,233.22L193.846,232.68L189,232.68L189,229.14L184.154,229.14L184.154,231.48L179.308,231.48L179.308,230.4L174.462,230.4L174.462,228.96L169.615,228.96L169.615,226.56L164.769,226.56L164.769,220.92L159.923,220.92L159.923,218.52L155.077,218.52L155.077,216.42L150.231,216.42L150.231,205.44L145.385,205.44L145.385,199.92L140.538,199.92L140.538,190.98L135.721,190.98L135.721,186.48L130.875,186.48L130.875,180.84L126.029,180.84L126.029,168.66L121.183,168.66L121.183,164.46L116.337,164.46L116.337,154.56L111.49,154.56L111.49,157.08L106.644,157.08L106.644,173.82L101.798,173.82L101.798,179.82L96.952,179.82L96.952,182.58L92.106,182.58L92.106,192.78L87.26,192.78L87.26,195.48L82.413,195.48L82.413,205.98L77.567,205.98L77.567,213.84L72.721,213.84L72.721,214.2L67.875,214.2L67.875,219.48L63.029,219.48L63.029,222.48L58.183,222.48L58.183,224.34L53.337,224.34L53.337,227.46L48.462,227.46L48.462,229.8L43.615,229.8L43.615,228.78L38.769,228.78L38.769,230.22L33.923,230.22L33.923,227.64L29.077,227.64L29.077,231.18L24.231,231.18L24.231,228.9L19.385,228.9L19.385,227.04L14.538,227.04L14.538,226.08L9.692,226.08L9.692,229.14L4.846,229.14L4.846,238.02L0,238.02Z" fill="#f2e661" opacity="1"/></g></g><path class="foreground" aria-hidden="true" d="" display="none"/></g></g><g class="mark-group role-legend" role="graphics-symbol" aria-roledescription="legend" aria-label="Symbol legend titled 'difference from closest library strain' for fill color with 5 values: identical, 1 mutation different, 2 mutations different, 3 mutations different, &gt;3 mutations different"><g transform="translate(522,0)"><path class="background" aria-hidden="true" d="M0,0h278v109h-278Z" pointer-events="none"/><g><g class="mark-group role-legend-entry"><g transform="translate(0,21)"><path class="background" aria-hidden="true" d="M0,0h0v0h0Z" pointer-events="none"/><g><g class="mark-group role-scope" role="graphics-object" aria-roledescription="group mark container"><g transform="translate(0,0)"><path class="background" aria-hidden="true" d="M0,0h163.39697265625v15.5h-163.39697265625Z" pointer-events="none" opacity="1"/><g><g class="mark-symbol role-legend-symbol" pointer-events="none"><path transform="translate(7.5,7.5)" d="M-5,-5h10v10h-10Z" fill="#000004" stroke-width="1.5" opacity="1"/></g><g class="mark-text role-legend-label" pointer-events="none"><text text-anchor="start" transform="translate(19,12.5)" font-family="sans-serif" font-size="15px" fill="#000" opacity="1">identical</text></g></g><path class="foreground" aria-hidden="true" d="" pointer-events="none" display="none"/></g><g transform="translate(0,18)"><path class="background" aria-hidden="true" d="M0,0h163.39697265625v15.5h-163.39697265625Z" pointer-events="none" opacity="1"/><g><g class="mark-symbol role-legend-symbol" pointer-events="none"><path transform="translate(7.5,7.5)" d="M-5,-5h10v10h-10Z" fill="#4f0d6c" stroke-width="1.5" opacity="1"/></g><g class="mark-text role-legend-label" pointer-events="none"><text text-anchor="start" transform="translate(19,12.5)" font-family="sans-serif" font-size="15px" fill="#000" opacity="1">1 mutation different</text></g></g><path class="foreground" aria-hidden="true" d="" pointer-events="none" display="none"/></g><g transform="translate(0,36)"><path class="background" aria-hidden="true" d="M0,0h163.39697265625v15.5h-163.39697265625Z" pointer-events="none" opacity="1"/><g><g class="mark-symbol role-legend-symbol" pointer-events="none"><path transform="translate(7.5,7.5)" d="M-5,-5h10v10h-10Z" fill="#ae305c" stroke-width="1.5" opacity="1"/></g><g class="mark-text role-legend-label" pointer-events="none"><text text-anchor="start" transform="translate(19,12.5)" font-family="sans-serif" font-size="15px" fill="#000" opacity="1">2 mutations different</text></g></g><path class="foreground" aria-hidden="true" d="" pointer-events="none" display="none"/></g><g transform="translate(0,54)"><path class="background" aria-hidden="true" d="M0,0h163.39697265625v15.5h-163.39697265625Z" pointer-events="none" opacity="1"/><g><g class="mark-symbol role-legend-symbol" pointer-events="none"><path transform="translate(7.5,7.5)" d="M-5,-5h10v10h-10Z" fill="#f3761b" stroke-width="1.5" opacity="1"/></g><g class="mark-text role-legend-label" pointer-events="none"><text text-anchor="start" transform="translate(19,12.5)" font-family="sans-serif" font-size="15px" fill="#000" opacity="1">3 mutations different</text></g></g><path class="foreground" aria-hidden="true" d="" pointer-events="none" display="none"/></g><g transform="translate(0,72)"><path class="background" aria-hidden="true" d="M0,0h163.39697265625v15.5h-163.39697265625Z" pointer-events="none" opacity="1"/><g><g class="mark-symbol role-legend-symbol" pointer-events="none"><path transform="translate(7.5,7.5)" d="M-5,-5h10v10h-10Z" fill="#f2e661" stroke-width="1.5" opacity="1"/></g><g class="mark-text role-legend-label" pointer-events="none"><text text-anchor="start" transform="translate(19,12.5)" font-family="sans-serif" font-size="15px" fill="#000" opacity="1">&gt;3 mutations different</text></g></g><path class="foreground" aria-hidden="true" d="" pointer-events="none" display="none"/></g></g></g><path class="foreground" aria-hidden="true" d="" pointer-events="none" display="none"/></g></g><g class="mark-text role-legend-title" pointer-events="none"><text text-anchor="start" transform="translate(0,13)" font-family="sans-serif" font-size="16px" font-weight="bold" fill="#000" opacity="1">difference from closest library strain</text></g></g><path class="foreground" aria-hidden="true" d="" pointer-events="none" display="none"/></g></g><g class="mark-group role-title"><g transform="translate(252,-27)"><path class="background" aria-hidden="true" d="M0,0h0v0h0Z" pointer-events="none"/><g><g class="mark-text role-title-text" role="graphics-symbol" aria-roledescription="title" aria-label="Title text 'all human H3N2 HA ectodomain protein sequences as of 2026-08-24'" pointer-events="none"><text text-anchor="middle" transform="translate(0,13)" font-family="sans-serif" font-size="17px" font-weight="bold" fill="#000" opacity="1">all human H3N2 HA ectodomain protein sequences as of 2026-08-24</text></g></g><path class="foreground" aria-hidden="true" d="" pointer-events="none" display="none"/></g></g></g><path class="foreground" aria-hidden="true" d="" display="none"/></g></g></g></svg>